<svg width="10" height="13" viewBox="0 0 10 13" fill="none" xmlns="http://www.w3.org/2000/svg">
<path d="M10 5.40909C10 9.22727 5 12.5 5 12.5C5 12.5 0 9.22727 0 5.40909C1.97602e-08 4.10712 0.526784 2.85847 1.46447 1.93784C2.40215 1.01721 3.67392 0.5 5 0.5C6.32608 0.5 7.59785 1.01721 8.53553 1.93784C9.47322 2.85847 10 4.10712 10 5.40909Z" fill="#0B0C0C"/>
<path d="M5 7.04545C5.92048 7.04545 6.66667 6.31283 6.66667 5.40909C6.66667 4.50535 5.92048 3.77273 5 3.77273C4.07953 3.77273 3.33333 4.50535 3.33333 5.40909C3.33333 6.31283 4.07953 7.04545 5 7.04545Z" fill="white"/>
</svg>
