<svg width="18" height="20" viewBox="0 0 18 20" fill="none" xmlns="http://www.w3.org/2000/svg">
<path d="M16.5 8.36364C16.5 14.0909 9 19 9 19C9 19 1.5 14.0909 1.5 8.36364C1.5 6.41068 2.29018 4.53771 3.6967 3.15676C5.10322 1.77581 7.01088 1 9 1C10.9891 1 12.8968 1.77581 14.3033 3.15676C15.7098 4.53771 16.5 6.41068 16.5 8.36364Z" stroke="#757575" stroke-width="2" stroke-linecap="round" stroke-linejoin="round"/>
<path d="M9 10.8182C10.3807 10.8182 11.5 9.71924 11.5 8.36364C11.5 7.00803 10.3807 5.90909 9 5.90909C7.61929 5.90909 6.5 7.00803 6.5 8.36364C6.5 9.71924 7.61929 10.8182 9 10.8182Z" stroke="#757575" stroke-width="2" stroke-linecap="round" stroke-linejoin="round"/>
</svg>
