<svg width="17" height="23" viewBox="0 0 17 23" fill="none" xmlns="http://www.w3.org/2000/svg">
<path d="M8.52629 10.2894C9.48396 10.2894 10.4201 10.0055 11.2164 9.4734C12.0127 8.94134 12.6333 8.18511 12.9998 7.30033C13.3663 6.41555 13.4622 5.44196 13.2754 4.50268C13.0885 3.56341 12.6274 2.70063 11.9502 2.02345C11.273 1.34627 10.4102 0.8851 9.47093 0.698266C8.53166 0.511433 7.55807 0.607323 6.67329 0.97381C5.78851 1.3403 5.03228 1.96092 4.50022 2.7572C3.96816 3.55348 3.68418 4.48965 3.68418 5.44733C3.68418 6.73154 4.19433 7.96315 5.1024 8.87122C6.01047 9.77929 7.24208 10.2894 8.52629 10.2894ZM8.52629 3.02628C9.00512 3.02628 9.47321 3.16827 9.87135 3.4343C10.2695 3.70033 10.5798 4.07845 10.763 4.52084C10.9463 4.96322 10.9942 5.45002 10.9008 5.91966C10.8074 6.38929 10.5768 6.82068 10.2382 7.15927C9.89964 7.49786 9.46825 7.72845 8.99861 7.82187C8.52897 7.91528 8.04218 7.86734 7.59979 7.68409C7.1574 7.50085 6.77928 7.19054 6.51325 6.7924C6.24723 6.39426 6.10523 5.92617 6.10523 5.44733C6.10523 4.80523 6.36031 4.18942 6.81434 3.73539C7.26838 3.28135 7.88418 3.02628 8.52629 3.02628ZM8.52629 12.7105C6.27892 12.7105 4.12361 13.6033 2.53449 15.1924C0.945361 16.7815 0.0526009 18.9368 0.0526009 21.1842C0.0526009 21.5052 0.180138 21.8131 0.407156 22.0401C0.634174 22.2672 0.942076 22.3947 1.26313 22.3947C1.58418 22.3947 1.89208 22.2672 2.1191 22.0401C2.34612 21.8131 2.47365 21.5052 2.47365 21.1842C2.47365 19.5789 3.11134 18.0394 4.24643 16.9043C5.38152 15.7692 6.92103 15.1315 8.52629 15.1315C10.1315 15.1315 11.6711 15.7692 12.8061 16.9043C13.9412 18.0394 14.5789 19.5789 14.5789 21.1842C14.5789 21.5052 14.7065 21.8131 14.9335 22.0401C15.1605 22.2672 15.4684 22.3947 15.7894 22.3947C16.1105 22.3947 16.4184 22.2672 16.6454 22.0401C16.8724 21.8131 17 21.5052 17 21.1842C17 18.9368 16.1072 16.7815 14.5181 15.1924C12.929 13.6033 10.7736 12.7105 8.52629 12.7105Z" fill="white"/>
</svg>
