<svg width="19" height="21" viewBox="0 0 19 21" fill="none" xmlns="http://www.w3.org/2000/svg">
<path fill-rule="evenodd" clip-rule="evenodd" d="M6.80256 21H11.3026C11.9236 21 12.4277 20.5048 12.4277 19.8947C12.4277 19.2846 11.9236 18.7895 11.3026 18.7895H6.80256C6.18154 18.7895 5.67754 19.2846 5.67754 19.8947C5.67754 20.5048 6.18154 21 6.80256 21ZM15.8027 10.7918V6.62937C15.8027 2.96763 12.7821 0 9.05486 0H9.05033C5.32314 0 2.30248 2.96763 2.30248 6.62937V10.7918L0.171673 14.9796C-0.00270526 15.3223 0.0152942 15.729 0.220048 16.0551C0.425927 16.3811 0.787073 16.5789 1.17746 16.5789H16.9277C17.3181 16.5789 17.6793 16.3811 17.8851 16.0551C18.0899 15.729 18.1079 15.3223 17.9335 14.9796L15.8027 10.7918ZM13.5527 11.0526C13.5527 11.2239 13.5932 11.3931 13.6719 11.5467L15.1074 14.3684H2.99775L4.43328 11.5467C4.51203 11.3931 4.55252 11.2239 4.55252 11.0526V6.62937C4.55252 4.18895 6.56629 2.21053 9.05033 2.21053H9.05486C11.5389 2.21053 13.5527 4.18895 13.5527 6.62937V11.0526Z" fill="white"/>
</svg>
