<svg width="121" height="23" viewBox="0 0 121 23" fill="none" xmlns="http://www.w3.org/2000/svg">
<g clip-path="url(#clip0_64_198)">
<path d="M0 18.199H4.23128V10.3403L0 10.7233V18.199Z" fill="white"/>
<path d="M1.21463 10.1167L5.44285 9.7337V3.97681H1.21463V10.1167Z" fill="white"/>
<path d="M23.2491 8.61851C23.2767 8.67979 23.2981 8.74106 23.3195 8.80847C23.4052 9.07502 23.448 9.39672 23.448 9.77663V18.199H27.6793V9.13017C27.6793 8.81153 27.664 8.50515 27.6334 8.22021L23.2491 8.61851Z" fill="white"/>
<path d="M6.65442 18.1989H10.8857V10.2422C10.8857 10.0676 10.8979 9.89602 10.9224 9.73364L6.65442 10.1197V18.1959V18.1989Z" fill="white"/>
<path d="M15.065 9.77667V18.1991H19.2962V10.2424C19.2962 9.75522 19.3788 9.32629 19.5502 8.95557L15.0466 9.36305C15.0619 9.49173 15.068 9.63267 15.068 9.77667H15.065Z" fill="white"/>
<path d="M26.8532 4.19752C26.1985 3.84518 25.3999 3.66748 24.4515 3.66748C23.8671 3.66748 23.3042 3.75327 22.7626 3.9279C22.2211 4.09948 21.7316 4.35684 21.2941 4.69998C20.8566 5.04619 20.4803 5.45062 20.1713 5.91631H19.9907C19.645 5.15955 19.1463 4.59275 18.4946 4.22203C17.8399 3.85437 17.0475 3.66748 16.1205 3.66748C15.5178 3.66748 14.9518 3.75327 14.4194 3.9279C13.887 4.09948 13.4006 4.35684 12.96 4.69998C12.5225 5.04619 12.1493 5.45062 11.8402 5.91631H11.6597L11.3507 3.97692H7.86902V9.51322L12.137 9.12718C12.1798 8.81774 12.2686 8.53281 12.3971 8.27851C12.5959 7.89247 12.8713 7.58303 13.2231 7.35018C13.575 7.11733 13.9758 7.0009 14.4225 7.0009C14.6978 7.0009 14.9548 7.0438 15.1965 7.12958C15.4382 7.21537 15.634 7.35018 15.7901 7.53094C15.9461 7.71171 16.0654 7.93536 16.1511 8.20191C16.2031 8.36736 16.2398 8.55119 16.2612 8.7534L20.7648 8.34591C20.774 8.3214 20.7862 8.29996 20.7954 8.27851C20.982 7.89247 21.2543 7.58303 21.6092 7.35018C21.9611 7.11733 22.3619 7.0009 22.8085 7.0009C23.0839 7.0009 23.3409 7.0438 23.5826 7.12958C23.8243 7.21537 24.0201 7.35018 24.1761 7.53094C24.2924 7.66881 24.3903 7.82813 24.4668 8.01196L28.851 7.61366C28.7776 6.91205 28.6185 6.30848 28.3676 5.79989C28.0158 5.08602 27.511 4.54986 26.8593 4.19752H26.8532Z" fill="white"/>
<path d="M39.3145 9.19459C39.4675 9.68174 39.5409 10.2639 39.5409 10.941V11.8448C39.5409 12.5678 39.4553 13.1806 39.2839 13.6769C39.1126 14.1763 38.8311 14.5563 38.4456 14.8136C38.0601 15.071 37.5492 15.1997 36.9098 15.1997C36.4478 15.1997 36.047 15.1139 35.7104 14.9423C35.3739 14.7707 35.0985 14.5287 34.8844 14.2162C34.6672 13.9067 34.5142 13.5391 34.4193 13.1071C34.3245 12.6751 34.2786 12.2033 34.2786 11.6855V11.0666C34.2786 10.3588 34.3704 9.74608 34.5509 9.21911C34.609 9.04753 34.6794 8.89128 34.762 8.74728L30.0779 8.29077V23.0001H34.3092V16.802H34.4622C34.7375 17.1819 35.0679 17.4975 35.4565 17.7579C35.8451 18.0184 36.2765 18.2053 36.7599 18.3278C37.2402 18.4473 37.7572 18.5086 38.308 18.5086C39.4247 18.5086 40.3976 18.2481 41.2206 17.7334C42.0467 17.2156 42.683 16.4344 43.1297 15.3835C43.5764 14.3357 43.7998 13.009 43.7998 11.4067C43.7998 10.7694 43.7661 10.1719 43.6957 9.62353L39.3176 9.19766L39.3145 9.19459Z" fill="white"/>
<path d="M42.4199 4.44262C41.5847 3.92484 40.5934 3.66748 39.44 3.66748C38.5619 3.66748 37.7664 3.83905 37.0536 4.18526C36.3407 4.53147 35.7502 5.08909 35.2852 5.86423H35.1047L34.7436 3.97999H31.2864V7.6872L35.9705 8.1437C36.1357 7.84345 36.3499 7.59222 36.613 7.3992C36.9985 7.11426 37.5033 6.97333 38.1213 6.97333C38.7393 6.97333 39.2686 7.09894 39.6572 7.34711C40.0427 7.59528 40.3242 7.97826 40.4955 8.48379C40.5077 8.51749 40.5169 8.55119 40.5261 8.58489L44.9042 9.01076C44.7971 8.16515 44.6075 7.42677 44.3382 6.79256C43.8915 5.74168 43.249 4.95734 42.4169 4.44262H42.4199Z" fill="white"/>
<path d="M55.2423 11.4097C55.2423 12.7976 54.9577 13.8178 54.3887 14.4704C53.8196 15.123 53.07 15.4478 52.1461 15.4478C51.2221 15.4478 50.4511 15.123 49.8912 14.4704C49.3283 13.8209 49.0499 12.8007 49.0499 11.4097C49.0499 10.9501 49.0835 10.5334 49.1447 10.1535L45.1092 9.7583C45.0297 10.2761 44.9899 10.8245 44.9899 11.4097C44.9899 12.8711 45.2347 14.1365 45.7242 15.2057C46.2137 16.275 46.9082 17.0869 47.8077 17.6384C48.7041 18.1899 49.7413 18.4656 50.9161 18.4656C51.9839 18.4656 52.9446 18.2113 53.7982 17.7028C54.4101 17.3382 54.8751 16.8847 55.1964 16.3455L55.2147 18.1991H59.2196V11.137L55.2147 10.7448C55.2331 10.9562 55.2423 11.1768 55.2423 11.4097Z" fill="white"/>
<path d="M56.5272 6.09998C56.206 5.49334 55.7134 4.98169 55.0526 4.5742C54.1898 4.0411 53.2169 3.77148 52.1308 3.77148C50.9559 3.77148 49.9249 4.05335 49.0345 4.61403C48.1442 5.17471 47.4497 5.98355 46.951 7.03444C46.6512 7.66558 46.4401 8.37332 46.3208 9.15153L50.3562 9.54676C50.4817 8.79613 50.7356 8.20175 51.115 7.76975C51.6841 7.12023 52.4306 6.7924 53.3576 6.7924C54.2846 6.7924 55.0312 7.11716 55.6002 7.76975C56.0744 8.30898 56.3498 9.09944 56.4263 10.1381L60.4312 10.5302V7.5706C60.4312 6.98235 60.4495 6.3941 60.4832 5.80585C60.5199 5.2176 60.5719 4.63854 60.6453 4.06867H56.7751L56.5272 6.10304V6.09998Z" fill="white"/>
<path d="M70.5214 14.3109C70.3164 14.697 70.0166 14.9819 69.6311 15.1627C69.2456 15.3435 68.7591 15.4354 68.1747 15.4354C67.5047 15.4354 66.954 15.3006 66.5226 15.034C66.0943 14.7675 65.7853 14.3692 65.5956 13.833C65.4059 13.2999 65.3111 12.6442 65.3111 11.8722V10.95L61.0308 11.192C61.0308 11.2533 61.0308 11.3145 61.0308 11.3789C61.0308 12.9813 61.3092 14.3109 61.8691 15.371C62.426 16.4311 63.2306 17.2185 64.28 17.7332C65.3264 18.251 66.6022 18.5084 68.0952 18.5084C69.0589 18.5084 69.9523 18.3919 70.7784 18.1591C71.6044 17.9262 72.3173 17.577 72.92 17.1113C73.5197 16.6456 73.9847 16.0573 74.3121 15.3404C74.6364 14.6265 74.8016 13.7962 74.8016 12.8464H70.8304C70.8304 13.4347 70.7264 13.9188 70.5214 14.3079V14.3109Z" fill="white"/>
<path d="M74.1193 5.00941C73.5074 4.54678 72.7946 4.20057 71.9777 3.97691C71.1608 3.75325 70.2705 3.63989 69.3067 3.63989C67.829 3.63989 66.5654 3.90032 65.516 4.41504C64.4666 4.93282 63.6589 5.72022 63.0929 6.77723C62.5483 7.79442 62.2638 9.06283 62.2424 10.5825L66.5226 10.3404V10.3312C66.5226 9.54079 66.6144 8.87594 66.8071 8.34284C66.9968 7.80973 67.2936 7.40531 67.6975 7.12651C68.1013 6.85383 68.6306 6.71289 69.2853 6.71289C69.8513 6.71289 70.3256 6.80787 70.7019 6.99783C71.0813 7.18472 71.3688 7.47272 71.5677 7.84956C71.7635 8.22948 71.8614 8.71049 71.8614 9.29568H76.0162C76.0162 8.3122 75.851 7.47272 75.5267 6.76498C75.1993 6.05724 74.7312 5.47205 74.1224 5.00635L74.1193 5.00941Z" fill="white"/>
<path d="M81.8935 15.0463C81.7038 14.7858 81.609 14.4151 81.609 13.9341V10.0186L77.4022 10.2575V14.9666C77.4022 15.7264 77.5552 16.3729 77.855 16.906C78.1548 17.4391 78.6107 17.8405 79.2226 18.107C79.8345 18.3736 80.5779 18.5084 81.453 18.5084C81.7467 18.5084 82.0649 18.49 82.4075 18.4563C82.7502 18.4226 83.0898 18.3674 83.4263 18.2878C83.7629 18.2112 84.0413 18.1376 84.2646 18.0702V15.4354H82.9215C82.4228 15.4354 82.0802 15.3067 81.8905 15.0493L81.8935 15.0463Z" fill="white"/>
<path d="M78.6199 9.65099L82.8236 9.41202V7.04982H85.4823V3.97682H82.8236V0H79.6264L78.7484 3.97682H76.8392V7.04982H78.6199V9.65099Z" fill="white"/>
<path d="M95.1809 9.24362C95.3155 9.71851 95.3859 10.2731 95.3859 10.9134V11.8693C95.3859 12.6414 95.2849 13.294 95.0891 13.8179C94.8903 14.3418 94.5721 14.7431 94.1346 15.0189C93.6971 15.2946 93.1249 15.4325 92.4212 15.4325C91.7176 15.4325 91.1699 15.2946 90.7293 15.0189C90.2918 14.7431 89.9737 14.3418 89.7748 13.8179C89.5759 13.2909 89.478 12.6414 89.478 11.8693V10.9134C89.478 10.4109 89.5208 9.96055 89.6004 9.56225L85.3018 9.81042C85.2314 10.2976 85.1978 10.8215 85.1978 11.3791C85.1978 12.9815 85.4854 14.3112 86.0606 15.3712C86.6357 16.4313 87.4618 17.2187 88.5388 17.7334C89.6126 18.2512 90.9068 18.5086 92.4212 18.5086C93.9357 18.5086 95.2543 18.2481 96.3282 17.7334C97.4021 17.2187 98.2282 16.4282 98.8064 15.3712C99.3816 14.3112 99.6692 12.9815 99.6692 11.3791C99.6692 10.5028 99.5835 9.71238 99.4091 9.00464L95.184 9.24668L95.1809 9.24362Z" fill="white"/>
<path d="M97.5398 4.44262C96.4659 3.92484 95.1626 3.66748 93.6328 3.66748C92.1031 3.66748 90.8242 3.9279 89.7503 4.44262C88.6734 4.96041 87.8504 5.74168 87.2721 6.79256C86.8958 7.47886 86.6419 8.28157 86.5134 9.20072L90.812 8.95255C90.8579 8.73502 90.916 8.52974 90.9864 8.33979C91.1852 7.80668 91.5034 7.40532 91.9409 7.13877C92.3784 6.87222 92.9414 6.73742 93.6328 6.73742C94.3243 6.73742 94.9086 6.87222 95.3461 7.13877C95.7836 7.40532 96.1018 7.80668 96.3007 8.33979C96.3344 8.43476 96.368 8.53281 96.3925 8.63391L100.618 8.39187C100.477 7.80056 100.275 7.26745 100.012 6.7895C99.4367 5.73861 98.6076 4.95428 97.5337 4.43956L97.5398 4.44262Z" fill="white"/>
<path d="M106.831 14.4457C107.688 14.1822 108.26 13.9525 108.26 13.0854C108.26 12.1387 107.737 11.7312 106.587 11.7312C105.556 11.7312 104.932 12.1019 104.932 13.1497H105.871C105.871 12.7024 106.229 12.6503 106.626 12.6503C107.061 12.6503 107.232 12.8097 107.232 13.0609C107.232 13.3765 106.951 13.4316 106.287 13.6338C105.442 13.8912 104.883 14.0995 104.883 15.0891V15.996H108.239V15.1014H105.797V15.0891C105.797 14.7062 106.339 14.5959 106.828 14.4457H106.831Z" fill="white"/>
<path d="M110.194 11.7344C109.01 11.7344 108.438 12.4789 108.438 13.9097C108.438 15.3405 109.01 16.085 110.194 16.085C111.378 16.085 111.938 15.3405 111.938 13.9097C111.938 12.4789 111.372 11.7344 110.194 11.7344ZM110.194 15.1689C109.695 15.1689 109.463 14.7461 109.463 13.9127C109.463 13.0794 109.646 12.6566 110.194 12.6566C110.68 12.6566 110.919 13.0794 110.919 13.9127C110.919 14.7461 110.68 15.1689 110.194 15.1689Z" fill="white"/>
<path d="M114.061 14.4457C114.918 14.1822 115.49 13.9525 115.49 13.0854C115.49 12.1387 114.967 11.7312 113.816 11.7312C112.785 11.7312 112.161 12.1019 112.161 13.1497H113.1C113.1 12.7024 113.458 12.6503 113.856 12.6503C114.291 12.6503 114.462 12.8097 114.462 13.0609C114.462 13.3765 114.18 13.4316 113.516 13.6338C112.672 13.8912 112.112 14.0995 112.112 15.0891V15.996H115.468V15.1014H113.027V15.0891C113.027 14.7062 113.568 14.5959 114.058 14.4457H114.061Z" fill="white"/>
<path d="M117.286 13.3429H116.726L116.778 12.7179H118.748V11.8232H115.909L115.701 14.2375H117.124C117.772 14.2375 117.986 14.4336 117.986 14.691C117.986 14.9483 117.861 15.1689 117.289 15.1689C116.919 15.1689 116.545 15.1107 116.545 14.6695H115.606C115.606 15.7173 116.236 16.0881 117.301 16.0881C118.473 16.0881 119.002 15.6775 119.002 14.6389C119.002 13.6002 118.259 13.346 117.283 13.346L117.286 13.3429Z" fill="white"/>
<path d="M107.832 8.89434C107.832 9.39374 107.333 9.46114 106.862 9.46114C106.036 9.46114 105.641 9.07816 105.641 8.19885C105.641 7.31954 105.926 6.94575 106.7 6.94575C107.235 6.94575 107.807 7.05911 107.807 7.56464H108.747C108.747 6.45554 108.009 6.02661 106.712 6.02661C105.296 6.02661 104.616 6.73435 104.616 8.20191C104.616 9.66948 105.341 10.3772 106.853 10.3772C108.006 10.3772 108.768 10.0004 108.768 8.89434H107.829H107.832Z" fill="white"/>
<path d="M111.023 10.3772C112.464 10.3772 113.159 9.63271 113.159 8.20191C113.159 6.77112 112.461 6.02661 111.023 6.02661C109.585 6.02661 108.894 6.77112 108.894 8.20191C108.894 9.63271 109.591 10.3772 111.023 10.3772ZM111.023 6.94575C111.779 6.94575 112.137 7.36856 112.137 8.20191C112.137 9.03527 111.779 9.45808 111.023 9.45808C110.267 9.45808 109.915 9.02914 109.915 8.20191C109.915 7.37469 110.224 6.94575 111.023 6.94575Z" fill="white"/>
<path d="M114.45 7.76687L116.252 10.2884H117.24V6.11548H116.252V8.63086L114.45 6.11548H113.455V10.2884H114.45V7.76687Z" fill="white"/>
<path d="M121 7.01011V6.11548H117.656V10.2884H118.65V8.64925H120.761V7.75462H118.65V7.01011H121Z" fill="white"/>
</g>
<defs>
<clipPath id="clip0_64_198">
<rect width="121" height="23" fill="white"/>
</clipPath>
</defs>
</svg>
